<svg width="41" height="41" viewBox="0 0 41 41" fill="none" xmlns="http://www.w3.org/2000/svg">
<g id="Frame 9">
<rect x="1" y="1" width="39" height="39" rx="19.5" stroke="#F27229"/>
<path id="Arrow 1" d="M17.0235 22.586C16.8121 22.7974 16.8121 23.1401 17.0235 23.3515C17.2349 23.5629 17.5776 23.5629 17.789 23.3515L17.0235 22.586ZM24.1347 16.7816C24.1347 16.4826 23.8924 16.2403 23.5934 16.2403L18.722 16.2403C18.4231 16.2403 18.1808 16.4826 18.1808 16.7816C18.1808 17.0805 18.4231 17.3228 18.722 17.3228H23.0522V21.653C23.0522 21.9519 23.2945 22.1942 23.5934 22.1942C23.8924 22.1942 24.1347 21.9519 24.1347 21.653L24.1347 16.7816ZM17.789 23.3515L23.9762 17.1643L23.2107 16.3988L17.0235 22.586L17.789 23.3515Z" fill="#F27229"/>
</g>
</svg>
